<?xml version="1.0" standalone="no"?><!-- Generator: Gravit.io --><svg xmlns="http://www.w3.org/2000/svg" xmlns:xlink="http://www.w3.org/1999/xlink" style="isolation:isolate" viewBox="113 449.061 1382 301.878" width="1382" height="301.878"><g id="null"><path d="M 1418 750.93886 L 1495 750.93886 L 1495 449.377502 L 1418 449.377502 L 1418 609.214786 L 1294 450.214028 L 1294 449.377502 L 1217 449.377502 L 1217 750.93886 L 1294 750.93886 L 1294 591.938103 L 1418 750.93886 Z M 1021 520.34024 L 1153.403177 520.34024 L 1153.403177 449.377502 L 1021 449.377502 L 941 449.377502 L 852 449.377502 L 852 520.34024 L 941 520.34024 L 941 750.622498 L 1021 750.622498 L 1021 520.34024 Z M 755 449.06114 L 838 449.06114 L 838 750.464317 L 755 750.464317 L 755 449.06114 Z M 593.660029 641.782058 L 524.999998 449.377502 L 432 449.377502 L 556.000001 750.622498 L 632.500003 750.622498 L 632.443556 750.464317 L 632.499999 750.464317 L 746.5 449.219321 L 659.5 449.219321 L 593.660029 641.782058 Z M 367.5 750.622498 L 314 750.622498 L 190 591.621741 L 190 750.622498 L 113 750.622498 L 113 449.06114 L 190 449.06114 L 190 449.897666 L 314 608.898423 L 314 517.525456 L 314 449.06114 L 418 449.06114 L 446 517.525456 L 391 517.525456 L 391 563.609661 L 464 563.609661 L 492 632.073977 L 391 632.073977 L 391 682.158181 L 511.5 682.158181 L 539.5 750.622498 L 367.5 750.622498 Z" style="stroke:none;fill:#1D90DD;stroke-miterlimit:10;"/><path d=" M 996.438642 599.841819 C 996.438642 516.623697 1064.0012 449.06114 1147.219321 449.06114 C 1230.437442 449.06114 1298 516.623697 1298 599.841819 C 1298 683.05994 1230.437442 750.622498 1147.219321 750.622498 C 1064.0012 750.622498 996.438642 683.05994 996.438642 599.841819 Z " fill="rgb(231,26,42)"/><path d=" M 1009.438642 599.841819 C 1009.438642 523.798593 1071.176095 462.06114 1147.219321 462.06114 C 1223.262547 462.06114 1285 523.798593 1285 599.841819 C 1285 675.885045 1223.262547 737.622498 1147.219321 737.622498 C 1071.176095 737.622498 1009.438642 675.885045 1009.438642 599.841819 Z " fill="rgb(255,255,255)"/><path d=" M 1077.219321 599.841819 C 1077.219321 561.207767 1108.58527 529.841819 1147.219321 529.841819 C 1185.853372 529.841819 1217.219321 561.207767 1217.219321 599.841819 C 1217.219321 638.47587 1185.853372 669.841819 1147.219321 669.841819 C 1108.58527 669.841819 1077.219321 638.47587 1077.219321 599.841819 Z " fill="rgb(26,26,26)"/></g></svg>